<?xml version="1.0" encoding="UTF-8"?>
<svg xmlns="http://www.w3.org/2000/svg" xmlns:xlink="http://www.w3.org/1999/xlink" width="810pt" height="809.999993pt" viewBox="0 0 810 809.999993" version="1.2">
<defs>
<clipPath id="clip1">
  <path d="M 23 11 L 789.765625 11 L 789.765625 802.34375 L 23 802.34375 Z M 23 11 "/>
</clipPath>
</defs>
<g id="surface1">
<g clip-path="url(#clip1)" clip-rule="nonzero">
<path style=" stroke:none;fill-rule:nonzero;fill:rgb(6.269836%,63.139343%,55.688477%);fill-opacity:1;" d="M 565.652344 518.902344 C 560.480469 611.984375 491.957031 672.339844 406.917969 720.003906 C 321.878906 672.339844 253.347656 611.984375 248.207031 518.902344 C 244.089844 444.90625 340.023438 404.371094 406.917969 481.828125 C 471.359375 403.648438 569.78125 444.90625 565.652344 518.902344 Z M 770.902344 311.183594 L 434.96875 21.734375 C 418.753906 7.746094 394.683594 7.746094 378.453125 21.734375 L 39.023438 314.210938 C 25.296875 326.03125 20.390625 345.105469 26.683594 362.058594 C 33.003906 379.015625 49.1875 390.257812 67.261719 390.257812 L 123.328125 390.257812 L 123.328125 741.167969 C 123.328125 775.398438 150.96875 802.265625 186.246094 802.265625 L 627.640625 802.265625 C 662.902344 802.265625 690.507812 775.398438 690.507812 741.167969 L 690.507812 390.257812 L 746.566406 390.257812 C 770.5 390.257812 789.871094 370.886719 789.871094 346.972656 C 789.871094 332.082031 782.359375 318.957031 770.902344 311.183594 "/>
</g>
</g>
</svg>
