<?xml version="1.0" encoding="UTF-8"?>
<svg xmlns="http://www.w3.org/2000/svg" xmlns:xlink="http://www.w3.org/1999/xlink" width="810pt" height="809.999993pt" viewBox="0 0 810 809.999993" version="1.2">
<defs>
<clipPath id="clip1">
  <path d="M 99 519 L 701 519 L 701 785.25 L 99 785.25 Z M 99 519 "/>
</clipPath>
</defs>
<g id="surface1">
<g clip-path="url(#clip1)" clip-rule="nonzero">
<path style=" stroke:none;fill-rule:nonzero;fill:rgb(6.269836%,63.139343%,55.688477%);fill-opacity:1;" d="M 592.746094 599.226562 L 594.210938 592.835938 L 466.121094 563.40625 L 466.128906 519.625 L 399.433594 544.335938 L 332.746094 519.625 L 332.746094 563.40625 L 204.65625 592.835938 L 206.121094 599.226562 L 205.261719 592.726562 C 204.941406 592.765625 198.261719 593.671875 188.347656 596.996094 C 173.492188 601.972656 151.207031 612.40625 132.515625 633.75 C 123.179688 644.410156 114.789062 657.789062 108.769531 674.394531 C 102.75 690.992188 99.109375 710.789062 99.109375 734.285156 C 99.109375 748.121094 100.371094 763.246094 103.148438 779.789062 L 104.0625 785.257812 L 694.554688 785.257812 L 695.671875 780.078125 C 699.328125 763.144531 700.972656 747.605469 700.972656 733.363281 C 700.980469 704.863281 694.351562 681.570312 684.300781 662.914062 C 676.777344 648.914062 667.371094 637.523438 657.53125 628.351562 C 642.777344 614.578125 627.085938 605.769531 615.039062 600.355469 C 602.984375 594.9375 594.570312 592.921875 594.257812 592.84375 L 594.210938 592.835938 L 592.746094 599.226562 L 591.230469 605.597656 L 591.621094 603.929688 L 591.222656 605.597656 L 591.230469 605.597656 L 591.621094 603.929688 L 591.222656 605.597656 C 591.464844 605.636719 616.082031 611.714844 640.117188 630.675781 C 652.15625 640.152344 664.050781 652.796875 672.960938 669.519531 C 681.867188 686.25 687.847656 707.085938 687.855469 733.363281 C 687.855469 746.59375 686.328125 761.195312 682.851562 777.316406 L 689.261719 778.699219 L 689.261719 772.144531 L 109.613281 772.144531 L 109.613281 778.699219 L 116.078125 777.613281 C 113.417969 761.726562 112.226562 747.324219 112.226562 734.285156 C 112.234375 704.753906 118.292969 682.210938 127.199219 664.824219 C 133.886719 651.796875 142.199219 641.632812 150.949219 633.648438 C 164.058594 621.691406 178.195312 614.660156 189.035156 610.652344 C 194.445312 608.648438 199.023438 607.40625 202.207031 606.667969 C 203.796875 606.292969 205.035156 606.058594 205.855469 605.910156 C 206.269531 605.832031 206.574219 605.785156 206.761719 605.753906 L 206.964844 605.722656 L 207 605.722656 L 206.707031 603.609375 L 206.992188 605.722656 L 207 605.722656 L 206.707031 603.609375 L 206.992188 605.722656 L 207.296875 605.683594 L 345.867188 573.84375 L 345.867188 538.464844 L 399.433594 558.320312 L 453.011719 538.464844 L 453.011719 573.84375 L 591.277344 605.613281 L 591.230469 605.597656 L 592.746094 599.226562 "/>
</g>
<path style=" stroke:none;fill-rule:nonzero;fill:rgb(6.269836%,63.139343%,55.688477%);fill-opacity:1;" d="M 551.65625 357.148438 L 553.660156 350.902344 C 551.242188 350.128906 548.773438 349.761719 546.355469 349.761719 C 541.269531 349.761719 536.417969 351.378906 532.394531 354.203125 L 536.164062 359.566406 L 542.710938 359.980469 C 543.109375 353.6875 543.179688 349.085938 543.179688 346.707031 C 543.179688 345.566406 543.164062 344.949219 543.15625 344.894531 L 536.605469 345.058594 L 543.164062 345.058594 C 543.164062 310.753906 538.121094 283.679688 529.761719 262.316406 C 523.492188 246.304688 515.339844 233.519531 506.125 223.449219 C 492.3125 208.324219 476.1875 199.371094 460.886719 194.285156 C 445.566406 189.183594 431.039062 187.878906 419.964844 187.871094 C 407.722656 187.878906 399.675781 189.488281 399.355469 189.550781 L 400.65625 195.976562 L 401.953125 189.550781 C 401.632812 189.488281 393.585938 187.878906 381.347656 187.878906 C 371.5 187.878906 358.929688 188.917969 345.5 192.722656 C 335.425781 195.578125 324.867188 200.007812 314.699219 206.734375 C 299.4375 216.8125 285.128906 232.144531 274.835938 254.578125 C 264.519531 277.019531 258.148438 306.464844 258.148438 345.058594 L 264.699219 345.058594 L 258.148438 344.863281 C 258.148438 344.925781 258.125 345.589844 258.125 346.785156 C 258.125 349.476562 258.210938 354.878906 258.765625 362.289062 L 265.300781 361.792969 L 270.039062 357.265625 C 265.503906 352.546875 259.21875 349.761719 252.535156 349.753906 C 250.109375 349.753906 247.636719 350.121094 245.203125 350.902344 L 245.21875 350.902344 C 240.089844 352.539062 235.847656 355.761719 232.9375 359.824219 C 230.015625 363.882812 228.375 368.8125 228.375 373.945312 C 228.375 376.394531 228.75 378.898438 229.53125 381.339844 L 235.988281 401.507812 L 235.988281 401.5 C 237.617188 406.625 240.835938 410.863281 244.898438 413.785156 C 248.96875 416.703125 253.890625 418.339844 259.023438 418.339844 C 261.480469 418.339844 263.988281 417.960938 266.429688 417.179688 L 266.414062 417.179688 C 270.757812 415.800781 274.359375 413.242188 277.066406 410.191406 L 272.167969 405.832031 L 265.789062 407.359375 C 272.058594 433.566406 283.40625 464.441406 304.195312 492.308594 C 314.582031 506.234375 327.339844 519.390625 342.945312 530.742188 C 358.554688 542.089844 377.011719 551.628906 398.714844 558.359375 L 400.65625 558.953125 L 402.597656 558.359375 C 424.027344 551.714844 442.289062 542.332031 457.769531 531.171875 C 481 514.421875 497.9375 493.691406 510.21875 472.332031 C 522.515625 450.953125 530.203125 428.925781 535.03125 409.339844 L 528.660156 407.773438 L 524.519531 412.851562 C 526.75 414.667969 529.410156 416.21875 532.464844 417.1875 L 532.441406 417.179688 C 534.882812 417.960938 537.386719 418.339844 539.84375 418.339844 C 544.980469 418.339844 549.902344 416.703125 553.972656 413.785156 C 558.035156 410.863281 561.25 406.625 562.886719 401.507812 L 569.34375 381.339844 C 570.128906 378.898438 570.503906 376.402344 570.496094 373.960938 C 570.496094 368.820312 568.859375 363.890625 565.941406 359.832031 C 563.019531 355.761719 558.777344 352.539062 553.652344 350.902344 L 551.65625 357.148438 L 549.652344 363.390625 C 552.039062 364.15625 553.933594 365.605469 555.289062 367.476562 C 556.632812 369.347656 557.386719 371.621094 557.386719 373.960938 C 557.386719 375.074219 557.210938 376.207031 556.851562 377.34375 L 550.394531 397.507812 C 549.628906 399.886719 548.1875 401.78125 546.308594 403.132812 C 544.445312 404.480469 542.167969 405.230469 539.84375 405.222656 C 538.726562 405.222656 537.589844 405.058594 536.449219 404.691406 L 536.425781 404.683594 C 535.125 404.277344 533.925781 403.601562 532.800781 402.6875 L 524.769531 396.152344 L 522.289062 406.203125 C 516.160156 431.09375 505.203125 459.910156 485.859375 485.445312 C 476.195312 498.222656 464.4375 510.195312 450.097656 520.539062 C 435.753906 530.875 418.820312 539.59375 398.714844 545.828125 L 400.65625 552.089844 L 402.597656 545.828125 C 382.230469 539.515625 365.128906 530.648438 350.664062 520.140625 C 328.984375 504.367188 313.226562 484.851562 301.722656 464.511719 C 290.222656 444.183594 283.023438 423.054688 278.546875 404.316406 L 275.625 392.078125 L 267.265625 401.476562 C 265.921875 402.984375 264.332031 404.082031 262.429688 404.691406 L 262.421875 404.691406 C 261.277344 405.058594 260.144531 405.222656 259.023438 405.230469 C 256.699219 405.230469 254.421875 404.480469 252.558594 403.132812 C 250.6875 401.789062 249.242188 399.894531 248.480469 397.515625 L 248.480469 397.507812 L 242.023438 377.34375 L 242.023438 377.335938 C 241.65625 376.199219 241.492188 375.066406 241.492188 373.945312 C 241.484375 371.613281 242.234375 369.347656 243.582031 367.476562 C 244.9375 365.605469 246.828125 364.15625 249.21875 363.390625 L 249.226562 363.382812 C 250.335938 363.03125 251.441406 362.867188 252.535156 362.867188 C 255.535156 362.859375 258.460938 364.132812 260.566406 366.339844 L 273.199219 379.503906 L 271.84375 361.308594 C 271.320312 354.273438 271.242188 349.1875 271.242188 346.785156 C 271.242188 346.253906 271.25 345.847656 271.25 345.589844 L 271.257812 345.308594 L 271.257812 345.058594 C 271.257812 312.027344 276.109375 286.605469 283.757812 267.105469 C 289.496094 252.464844 296.78125 241.140625 304.867188 232.292969 C 316.992188 219.027344 330.980469 211.257812 344.566406 206.726562 C 358.148438 202.195312 371.3125 200.984375 381.347656 200.992188 C 386.886719 200.992188 391.472656 201.351562 394.628906 201.71875 C 396.210938 201.898438 397.429688 202.078125 398.238281 202.203125 C 398.636719 202.273438 398.941406 202.328125 399.128906 202.359375 L 399.332031 202.390625 L 399.363281 202.402344 L 399.683594 200.796875 L 399.355469 202.402344 L 399.363281 202.402344 L 399.683594 200.796875 L 399.355469 202.402344 L 400.65625 202.667969 L 401.953125 202.402344 L 401.617188 200.726562 L 401.945312 202.402344 L 401.953125 202.402344 L 401.617188 200.726562 L 401.945312 202.402344 C 402.097656 202.367188 409.226562 200.984375 419.964844 200.984375 C 428.886719 200.984375 440.277344 201.945312 452.226562 205.335938 C 461.207031 207.878906 470.488281 211.789062 479.371094 217.667969 C 492.695312 226.507812 505.195312 239.734375 514.554688 260.054688 C 523.902344 280.375 530.046875 307.894531 530.046875 345.058594 L 530.046875 345.277344 C 530.054688 345.449219 530.0625 345.933594 530.0625 346.707031 C 530.0625 348.835938 529.996094 353.171875 529.621094 359.148438 L 528.753906 372.789062 L 539.9375 364.933594 C 541.816406 363.609375 544.070312 362.867188 546.355469 362.875 C 547.445312 362.875 548.539062 363.039062 549.652344 363.390625 L 551.65625 357.148438 "/>
<path style=" stroke:none;fill-rule:nonzero;fill:rgb(6.269836%,63.139343%,55.688477%);fill-opacity:1;" d="M 495.933594 576.980469 L 592.746094 599.226562 C 592.746094 599.226562 728.460938 635.707031 689.261719 778.699219 L 109.613281 778.699219 C 82.25 621.574219 206.121094 599.226562 206.121094 599.226562 L 300.851562 578.578125 L 401.023438 695.695312 L 495.933594 576.980469 "/>
<path style=" stroke:none;fill-rule:nonzero;fill:rgb(6.269836%,63.139343%,55.688477%);fill-opacity:1;" d="M 477.484375 568.625 C 477.484375 568.625 571.925781 590.261719 582.34375 498.636719 C 582.34375 498.636719 615.34375 290.25 570.550781 216.351562 C 570.550781 216.351562 474.527344 58.21875 345.914062 138.023438 C 345.914062 138.023438 234.933594 133.585938 217.179688 327.199219 C 217.179688 327.199219 190.191406 603.296875 313.828125 568.625 L 339.308594 568.625 L 338.523438 519 C 302.050781 486.140625 286.050781 447.703125 286.050781 447.703125 C 278.710938 412.039062 276.1875 399.777344 277.855469 364.140625 C 282.066406 274.070312 282.378906 247.394531 352.589844 216.351562 C 352.589844 216.351562 424.144531 314.070312 536.558594 350.941406 C 536.558594 350.941406 528.738281 445.9375 508.042969 470.0625 C 508.042969 470.0625 477.359375 509.113281 460.171875 521.125 L 460.171875 568.625 L 477.484375 568.625 "/>
<path style=" stroke:none;fill-rule:nonzero;fill:rgb(100%,100%,100%);fill-opacity:1;" d="M 308.171875 760.421875 C 317.914062 758.480469 327.527344 754.332031 335.644531 748.660156 C 342.1875 744.082031 347.210938 738.394531 350.570312 731.976562 C 353.9375 725.554688 355.632812 718.410156 355.632812 710.96875 C 355.632812 706.664062 355.070312 702.25 353.945312 697.8125 C 350.429688 683.949219 343.449219 670.292969 336.769531 658.210938 C 328.191406 642.710938 317.632812 626.691406 302.652344 615.777344 L 299.050781 620.722656 C 312.820312 630.714844 323.019531 645.964844 331.417969 661.167969 C 338.023438 673.101562 344.746094 686.390625 348.011719 699.316406 C 349.019531 703.292969 349.511719 707.195312 349.511719 710.96875 C 349.511719 717.484375 348.042969 723.613281 345.152344 729.136719 C 342.257812 734.652344 337.9375 739.582031 332.136719 743.652344 C 324.742188 748.816406 315.832031 752.660156 306.972656 754.425781 L 308.171875 760.421875 "/>
<path style=" stroke:none;fill-rule:nonzero;fill:rgb(100%,100%,100%);fill-opacity:1;" d="M 277.847656 615.558594 C 299.828125 615.691406 317.28125 639.441406 328.160156 659.675781 C 331.527344 657.34375 334.996094 655.152344 338.523438 653.070312 C 326.09375 630.363281 305.53125 603.421875 277.847656 603.296875 L 277.847656 615.558594 "/>
<path style=" stroke:none;fill-rule:nonzero;fill:rgb(100%,100%,100%);fill-opacity:1;" d="M 294.027344 760.21875 C 293.285156 756.421875 295.695312 752.769531 299.414062 752.03125 L 305.621094 750.8125 C 309.328125 750.078125 312.953125 752.542969 313.695312 756.335938 C 314.441406 760.125 312.039062 763.792969 308.328125 764.53125 L 302.113281 765.75 C 298.402344 766.476562 294.777344 764.003906 294.027344 760.21875 "/>
<path style=" stroke:none;fill-rule:nonzero;fill:rgb(100%,100%,100%);fill-opacity:1;" d="M 248.730469 754.425781 C 239.863281 752.660156 230.957031 748.824219 223.558594 743.652344 C 217.761719 739.582031 213.433594 734.652344 210.542969 729.136719 C 207.648438 723.613281 206.183594 717.484375 206.175781 710.960938 C 206.175781 707.195312 206.667969 703.292969 207.679688 699.324219 C 210.949219 686.390625 217.675781 673.101562 224.265625 661.167969 C 232.671875 645.964844 242.886719 630.714844 256.636719 620.722656 L 253.035156 615.777344 C 238.070312 626.691406 227.503906 642.710938 218.910156 658.210938 C 212.25 670.292969 205.269531 683.949219 201.746094 697.820312 C 200.625 702.25 200.0625 706.65625 200.0625 710.960938 C 200.054688 718.410156 201.753906 725.554688 205.121094 731.96875 C 208.484375 738.394531 213.511719 744.082031 220.054688 748.660156 C 228.171875 754.324219 237.78125 758.480469 247.535156 760.421875 L 248.730469 754.425781 "/>
<path style=" stroke:none;fill-rule:nonzero;fill:rgb(100%,100%,100%);fill-opacity:1;" d="M 277.847656 615.558594 C 255.871094 615.691406 238.40625 639.441406 227.527344 659.675781 C 224.171875 657.34375 220.695312 655.152344 217.171875 653.070312 C 229.585938 630.363281 250.164062 603.421875 277.847656 603.296875 L 277.847656 615.558594 "/>
<path style=" stroke:none;fill-rule:nonzero;fill:rgb(100%,100%,100%);fill-opacity:1;" d="M 261.671875 760.21875 C 262.414062 756.421875 260.003906 752.769531 256.292969 752.03125 L 250.078125 750.8125 C 246.367188 750.078125 242.753906 752.542969 241.992188 756.335938 C 241.257812 760.125 243.667969 763.792969 247.371094 764.53125 L 253.59375 765.75 C 257.292969 766.476562 260.910156 764.003906 261.671875 760.21875 "/>
<path style=" stroke:none;fill-rule:nonzero;fill:rgb(100%,100%,100%);fill-opacity:1;" d="M 560.109375 721.257812 C 529.105469 718.847656 523.25 682.320312 524.496094 663.148438 L 524.496094 576.980469 L 536.761719 579.734375 L 536.722656 663.769531 C 536.691406 664.191406 534.210938 706.960938 561.054688 709.050781 L 560.109375 721.257812 "/>
<path style=" stroke:none;fill-rule:nonzero;fill:rgb(100%,100%,100%);fill-opacity:1;" d="M 582.34375 743.542969 C 593.789062 743.542969 603.09375 734.246094 603.09375 722.808594 C 603.09375 711.367188 593.789062 702.0625 582.34375 702.0625 C 570.902344 702.0625 561.597656 711.367188 561.597656 722.808594 C 561.597656 734.246094 570.902344 743.542969 582.34375 743.542969 Z M 582.34375 689.816406 C 600.535156 689.816406 615.335938 704.613281 615.335938 722.808594 C 615.335938 740.984375 600.535156 755.78125 582.34375 755.78125 C 564.148438 755.78125 549.355469 740.984375 549.355469 722.808594 C 549.355469 704.613281 564.148438 689.816406 582.34375 689.816406 "/>
<path style=" stroke:none;fill-rule:nonzero;fill:rgb(100%,100%,100%);fill-opacity:1;" d="M 570.550781 722.808594 C 570.550781 716.28125 575.832031 711.007812 582.34375 711.007812 C 588.875 711.007812 594.15625 716.28125 594.15625 722.808594 C 594.15625 729.324219 588.875 734.605469 582.34375 734.605469 C 575.832031 734.605469 570.550781 729.324219 570.550781 722.808594 "/>
<path style=" stroke:none;fill-rule:nonzero;fill:rgb(100%,100%,100%);fill-opacity:1;" d="M 286.050781 609.039062 L 286.050781 574.210938 L 273.769531 576.964844 L 273.800781 609.039062 L 286.050781 609.039062 "/>
<path style=" stroke:none;fill-rule:nonzero;fill:rgb(100%,100%,100%);fill-opacity:1;" d="M 288.632812 194.425781 C 288.632812 194.425781 393.335938 227.191406 509.632812 194.425781 L 551.945312 90.738281 C 551.945312 90.738281 424.878906 0.0859375 250.09375 92.710938 L 288.632812 194.425781 "/>
<path style=" stroke:none;fill-rule:nonzero;fill:rgb(6.269836%,63.139343%,55.688477%);fill-opacity:1;" d="M 288.632812 194.425781 L 285.355469 204.90625 C 286.058594 205.117188 333.546875 219.953125 400.648438 219.96875 C 434.203125 219.96875 472.671875 216.242188 512.613281 205 L 517.773438 203.535156 L 565.390625 86.839844 L 558.324219 81.800781 C 557.769531 81.402344 543.125 71.019531 517.136719 60.675781 C 491.152344 50.347656 453.777344 40.046875 407.964844 40.046875 C 361.160156 40.023438 305.589844 50.855469 244.953125 83.007812 L 236.398438 87.546875 L 280.257812 203.308594 L 285.355469 204.90625 L 288.632812 194.425781 L 298.902344 190.539062 L 260.363281 88.820312 L 250.09375 92.710938 L 255.238281 102.40625 C 312.796875 71.917969 364.527344 62.019531 407.964844 62.003906 C 450.46875 62.003906 485.085938 71.558594 509.011719 81.082031 C 520.972656 85.839844 530.257812 90.582031 536.472656 94.09375 C 539.578125 95.847656 541.925781 97.289062 543.453125 98.273438 C 544.21875 98.757812 544.785156 99.132812 545.136719 99.378906 L 545.511719 99.636719 L 545.582031 99.683594 L 549.449219 94.226562 L 545.566406 99.675781 L 545.582031 99.683594 L 549.449219 94.226562 L 545.566406 99.675781 L 551.945312 90.738281 L 541.777344 86.589844 L 499.464844 190.28125 L 509.632812 194.425781 L 506.65625 183.855469 C 469.054688 194.449219 432.582031 198.011719 400.648438 198.011719 C 368.730469 198.011719 341.367188 194.449219 322.070312 190.914062 C 312.429688 189.136719 304.796875 187.367188 299.632812 186.0625 C 297.046875 185.40625 295.074219 184.863281 293.769531 184.488281 C 293.121094 184.308594 292.632812 184.160156 292.320312 184.074219 L 291.984375 183.972656 L 291.921875 183.949219 L 291.914062 183.949219 L 288.632812 194.425781 L 298.902344 190.539062 L 288.632812 194.425781 "/>
<path style=" stroke:none;fill-rule:nonzero;fill:rgb(6.269836%,63.139343%,55.688477%);fill-opacity:1;" d="M 460.171875 130.722656 C 460.171875 161.53125 435.1875 186.507812 404.375 186.507812 C 373.550781 186.507812 348.574219 161.53125 348.574219 130.722656 C 348.574219 99.917969 373.550781 74.933594 404.375 74.933594 C 435.1875 74.933594 460.171875 99.917969 460.171875 130.722656 "/>
<path style=" stroke:none;fill-rule:nonzero;fill:rgb(100%,100%,100%);fill-opacity:1;" d="M 413.875 169.355469 C 413.875 171.398438 412.230469 173.042969 410.195312 173.042969 L 398.542969 173.042969 C 396.507812 173.042969 394.863281 171.398438 394.863281 169.355469 L 394.863281 92.085938 C 394.863281 90.050781 396.507812 88.398438 398.542969 88.398438 L 410.195312 88.398438 C 412.230469 88.398438 413.875 90.050781 413.875 92.085938 L 413.875 169.355469 "/>
<path style=" stroke:none;fill-rule:nonzero;fill:rgb(100%,100%,100%);fill-opacity:1;" d="M 372.671875 130.722656 C 370.648438 130.722656 368.996094 129.066406 368.996094 127.046875 L 368.996094 115.386719 C 368.996094 113.351562 370.648438 111.71875 372.671875 111.71875 L 436.066406 111.71875 C 438.101562 111.71875 439.734375 113.351562 439.734375 115.386719 L 439.734375 127.046875 C 439.734375 129.066406 438.101562 130.722656 436.066406 130.722656 L 372.671875 130.722656 "/>
</g>
</svg>
