<?xml version="1.0" encoding="UTF-8"?>
<svg xmlns="http://www.w3.org/2000/svg" xmlns:xlink="http://www.w3.org/1999/xlink" width="810pt" height="809.999993pt" viewBox="0 0 810 809.999993" version="1.2">
<defs>
<clipPath id="clip1">
  <path d="M 194.03125 186 L 616.28125 186 L 616.28125 791 L 194.03125 791 Z M 194.03125 186 "/>
</clipPath>
</defs>
<g id="surface1">
<path style=" stroke:none;fill-rule:nonzero;fill:rgb(6.269836%,63.139343%,55.688477%);fill-opacity:1;" d="M 391.417969 171.015625 C 433.398438 171.015625 467.878906 136.5 467.753906 94.617188 C 467.628906 53.035156 433.222656 18.769531 391.589844 18.742188 C 349.808594 18.71875 315.554688 52.761719 315.40625 94.445312 C 315.230469 136.574219 349.4375 170.988281 391.417969 171.015625 "/>
<g clip-path="url(#clip1)" clip-rule="nonzero">
<path style=" stroke:none;fill-rule:nonzero;fill:rgb(6.269836%,63.139343%,55.688477%);fill-opacity:1;" d="M 570.914062 329.117188 C 566.867188 318.96875 557.402344 311.351562 545.726562 310.257812 L 458.910156 302.144531 L 436.429688 300.0625 C 410.667969 265.398438 367.023438 178.234375 300.253906 186.84375 C 285.96875 188.707031 272.953125 196.246094 263.984375 207.511719 C 215.84375 268.003906 194.132812 338.542969 194.109375 416.007812 C 194.085938 439.058594 195.402344 462.058594 197.089844 485.058594 C 198.554688 505.082031 208.242188 519.746094 222.078125 529.519531 L 222.078125 740.371094 C 222.078125 768.3125 244.757812 790.9375 272.703125 790.9375 C 300.675781 790.9375 323.328125 768.3125 323.328125 740.371094 L 323.328125 532.523438 C 371.667969 504.289062 365.632812 435.285156 372.117188 384.59375 C 373.707031 372.164062 377.207031 360.105469 383.144531 347.648438 L 391.691406 356.011719 L 394.769531 359.015625 C 400.234375 364.324219 407.664062 367.671875 415.910156 367.820312 L 417.425781 367.871094 L 542.347656 370.351562 C 553.230469 370.527344 563.042969 364.796875 568.507812 356.011719 C 580.851562 360.578125 589.671875 372.414062 589.671875 386.308594 L 589.671875 777.691406 C 589.671875 785.007812 595.605469 790.9375 602.933594 790.9375 C 610.261719 790.9375 616.199219 785.007812 616.199219 777.691406 L 616.199219 386.308594 C 616.199219 358.566406 596.847656 335.292969 570.914062 329.117188 "/>
</g>
</g>
</svg>
